<svg width="512" height="512" fill="none" xmlns="http://www.w3.org/2000/svg"><g clip-path="url(#ex)" fill="#52666E"><path d="M296.757 446.757l43.184-43.184L443.96 507.606c5.856 5.856 15.349 5.862 21.211 0l42.437-42.437c5.868-5.868 5.844-15.382 0-21.226L403.574 339.939l43.184-43.184c9.409-9.408 2.76-25.605-10.605-25.605h-150c-8.291 0-15 6.709-15 15v150c0 13.301 16.126 20.053 25.604 10.607zM4.392 68.04L108.425 172.06l-43.184 43.184c-9.409 9.408-2.76 25.605 10.605 25.605h150c8.291 0 15-6.709 15-15v-150c0-13.269-16.088-20.09-25.606-10.606l-43.198 43.169L68.038 4.393c-5.856-5.856-15.351-5.859-21.209 0L4.392 46.828c-5.832 5.832-5.88 15.331 0 21.211z"/></g><defs><clipPath id="ex"><path fill="#fff" d="M0 0h512v512H0z"/></clipPath></defs></svg>
