<svg width="512" height="512" fill="none" xmlns="http://www.w3.org/2000/svg"><path d="M486.396 336.393l-43.184 43.184-104.019-104.033c-5.856-5.856-15.349-5.862-21.211 0l-42.437 42.437c-5.868 5.868-5.844 15.382 0 21.226l104.034 104.004-43.184 43.184C326.986 495.803 333.635 512 347 512h150c8.291 0 15-6.709 15-15V347c0-13.301-16.126-20.053-25.604-10.607zM236.454 172.808L132.421 68.789l43.184-43.184C185.014 16.197 178.365 0 165 0H15C6.709 0 0 6.709 0 15v150c0 13.269 16.088 20.09 25.606 10.606l43.198-43.169 104.004 104.018c5.856 5.856 15.351 5.859 21.209.001l42.437-42.437c5.832-5.832 5.88-15.331 0-21.211z" fill="#52666E"/></svg>