<svg width="256" height="256" fill="none" xmlns="http://www.w3.org/2000/svg"><path fill="#fff" d="M0 0h256v256H0z"/><path fill-rule="evenodd" clip-rule="evenodd" d="M149.12 32.328l50.829 29.347a22.187 22.187 0 014.999-3.956c10.542-6.06 23.987-2.462 30.11 8.08 6.06 10.541 2.462 23.987-8.079 30.11a22.1 22.1 0 01-5.871 2.337v58.717a22.076 22.076 0 015.807 2.322c10.605 6.123 14.203 19.569 8.08 30.11-6.06 10.542-19.568 14.14-30.11 8.08a21.864 21.864 0 01-5.449-4.423l-50.519 29.168a22.04 22.04 0 011.113 6.943c0 12.12-9.847 22.031-22.03 22.031-12.183 0-22.03-9.848-22.03-22.031a22.1 22.1 0 01.891-6.233l-50.815-29.339a22.172 22.172 0 01-4.931 3.884c-10.605 6.06-24.05 2.462-30.11-8.08-6.06-10.541-2.462-23.987 8.08-30.11a22.088 22.088 0 015.807-2.323V98.246a22.084 22.084 0 01-5.87-2.337c-10.542-6.06-14.14-19.569-8.08-30.11 6.06-10.542 19.568-14.14 30.11-8.08a22.19 22.19 0 014.976 3.931l50.842-29.355a22.096 22.096 0 01-.9-6.265C105.97 13.847 115.817 4 128 4c12.183 0 22.03 9.847 22.03 22.03 0 2.19-.318 4.303-.91 6.298zm-5.296 9.042l50.95 29.417a22 22 0 002.094 17.042c3.102 5.395 8.154 8.971 13.761 10.365v58.79c-.285.07-.57.146-.852.227L143.233 41.957c.201-.192.398-.388.591-.587zm-31.043.6L46.238 157.224a21.722 21.722 0 00-.867-.233V98.194c5.607-1.394 10.66-4.97 13.76-10.365a22 22 0 002.086-17.075l50.935-29.409c.206.213.415.422.629.626zm21.374 5.222l66.528 115.226a21.926 21.926 0 00-3.878 4.947 22.076 22.076 0 00-2.322 5.807H61.518a22.108 22.108 0 00-2.323-5.807 22.216 22.216 0 00-3.872-4.92l66.54-115.248a22.1 22.1 0 006.137.864c2.137 0 4.203-.303 6.155-.869zm10.137 167.13l50.619-29.226a21.97 21.97 0 01-.407-1.445H61.49c-.07.286-.147.57-.228.852l50.867 29.369A21.966 21.966 0 01128 207.133c6.461 0 12.265 2.77 16.292 7.189z" fill="#E535AB"/></svg>
