<svg width="256" height="256" fill="none" xmlns="http://www.w3.org/2000/svg"><path fill="#fff" d="M0 0h256v256H0z"/><path fill-rule="evenodd" clip-rule="evenodd" d="M133.264 238l-5.857-2.001s.715-29.857-9.999-31.999c-7.143-8.286 1.143-351.428 26.856-1.143 0 0-8.856 4.428-10.428 12-1.715 7.429-.572 23.143-.572 23.143z" fill="#fff"/><path fill-rule="evenodd" clip-rule="evenodd" d="M133.264 238l-5.857-2.001s.715-29.857-9.999-31.999c-7.143-8.286 1.143-351.428 26.856-1.143 0 0-8.856 4.428-10.428 12-1.715 7.429-.572 23.143-.572 23.143z" fill="#A6A385"/><path fill-rule="evenodd" clip-rule="evenodd" d="M136.408 209.143s51.285-33.714 39.285-103.858c-11.571-50.999-38.858-67.713-41.857-74.142-3.285-4.571-6.429-12.57-6.429-12.57l2.144 141.855c0 .143-4.43 43.429 6.857 48.715z" fill="#fff"/><path fill-rule="evenodd" clip-rule="evenodd" d="M136.408 209.143s51.285-33.714 39.285-103.858c-11.571-50.999-38.858-67.713-41.857-74.142-3.285-4.571-6.429-12.57-6.429-12.57l2.144 141.855c0 .143-4.43 43.429 6.857 48.715z" fill="#499D4A"/><path fill-rule="evenodd" clip-rule="evenodd" d="M124.408 210.999s-48.143-32.857-45.286-90.713C81.836 62.428 115.836 34 122.407 28.857c4.286-4.571 4.429-6.286 4.715-10.857 3 6.429 2.429 96.143 2.857 106.714 1.285 40.714-2.286 78.572-5.571 86.285z" fill="#fff"/><path fill-rule="evenodd" clip-rule="evenodd" d="M124.408 210.999s-48.143-32.857-45.286-90.713C81.836 62.428 115.836 34 122.407 28.857c4.286-4.571 4.429-6.286 4.715-10.857 3 6.429 2.429 96.143 2.857 106.714 1.285 40.714-2.286 78.572-5.571 86.285z" fill="#58AA50"/></svg>
