<svg width="256" height="256" fill="none" xmlns="http://www.w3.org/2000/svg"><path fill="#fff" d="M0 0h256v256H0z"/><path d="M237.418 150.867c-1.322-4.004-4.786-6.793-9.266-7.463-2.112-.315-4.531-.181-7.394.409-4.989 1.03-8.69 1.421-11.392 1.498 10.197-17.216 18.488-36.849 23.261-55.33 7.718-29.881 3.594-43.494-1.226-49.652-12.755-16.298-31.364-25.054-53.816-25.322-11.975-.147-22.49 2.218-27.974 3.918-5.107-.9-10.598-1.404-16.36-1.497-10.799-.172-20.341 2.182-28.495 7.02-4.515-1.525-11.758-3.677-20.125-5.05-19.677-3.231-35.536-.714-47.136 7.48-14.046 9.923-20.558 27.162-19.354 51.24.382 7.644 4.659 30.902 11.392 52.961 3.87 12.678 7.996 23.207 12.264 31.296 6.053 11.47 12.53 18.224 19.802 20.65 4.075 1.358 11.48 2.308 19.269-4.177.987 1.195 2.304 2.383 4.052 3.486 2.22 1.4 4.934 2.544 7.645 3.222 9.77 2.443 18.921 1.831 26.728-1.592.048 1.389.085 2.716.117 3.861.051 1.858.102 3.68.171 5.384.462 11.521 1.246 20.479 3.568 26.747.128.345.299.87.481 1.427 1.158 3.548 3.096 9.486 8.024 14.138 5.105 4.817 11.279 6.295 16.933 6.295 2.836 0 5.542-.372 7.915-.881 8.46-1.812 18.067-4.575 25.017-14.471 6.571-9.355 9.765-23.445 10.343-45.648.075-.628.144-1.227.211-1.798l.137-1.173 1.548.136.399.027c8.616.392 19.152-1.435 25.622-4.44 5.113-2.373 21.496-11.022 17.639-22.701z" fill="#000"/><path d="M222.685 153.139c-25.619 5.284-27.38-3.39-27.38-3.39 27.05-40.137 38.357-91.085 28.599-103.554-26.621-34.014-72.704-17.928-73.473-17.51l-.248.044c-5.061-1.05-10.726-1.677-17.092-1.78-11.592-.19-20.385 3.039-27.058 8.099 0 0-82.207-33.867-78.384 42.593.814 16.266 23.314 123.076 50.152 90.815 9.81-11.797 19.287-21.772 19.287-21.772 4.707 3.127 10.343 4.722 16.251 4.149l.458-.389c-.142 1.464-.077 2.897.184 4.593-6.913 7.725-4.882 9.081-18.703 11.926-13.985 2.882-5.77 8.013-.405 9.354 6.503 1.626 21.547 3.93 31.712-10.3l-.405 1.624c2.709 2.169 4.611 14.113 4.292 24.94-.319 10.827-.532 18.26 1.603 24.066 2.134 5.807 4.262 18.87 22.431 14.977 15.181-3.253 23.049-11.684 24.143-25.748.777-9.998 2.534-8.52 2.645-17.459l1.41-4.232c1.626-13.553.258-17.925 9.612-15.891l2.273.199c6.884.314 15.894-1.107 21.182-3.565 11.387-5.284 18.141-14.108 6.913-11.789h.001z" fill="#336791"/><path d="M110.845 84.915c-2.308-.321-4.399-.024-5.457.777-.595.45-.779.973-.829 1.332-.133.952.535 2.004.944 2.547 1.159 1.537 2.853 2.593 4.53 2.826.243.033.484.05.725.05 2.796 0 5.337-2.177 5.561-3.784.28-2.012-2.641-3.354-5.474-3.748zM187.327 84.979c-.22-1.578-3.028-2.027-5.691-1.657-2.66.37-5.239 1.571-5.024 3.152.173 1.23 2.392 3.328 5.02 3.328.222 0 .446-.015.671-.047 1.754-.242 3.041-1.356 3.653-1.999.931-.977 1.469-2.068 1.371-2.777z" fill="#fff"/><path d="M231.21 152.538c-.976-2.954-4.12-3.904-9.344-2.825-15.511 3.201-21.065.983-22.889-.36 12.056-18.366 21.973-40.566 27.324-61.28 2.535-9.812 3.935-18.924 4.049-26.35.126-8.154-1.262-14.143-4.126-17.803-11.545-14.752-28.489-22.665-49-22.883-14.101-.158-26.015 3.45-28.324 4.465-4.864-1.21-10.166-1.952-15.938-2.047-10.586-.17-19.736 2.364-27.312 7.529-3.29-1.225-11.795-4.144-22.194-5.819-17.98-2.895-32.268-.702-42.465 6.522-12.166 8.62-17.782 24.027-16.694 45.793.366 7.324 4.538 29.852 11.124 51.427 8.668 28.396 18.09 44.472 28.003 47.778a12.51 12.51 0 003.974.658c3.617 0 8.05-1.63 12.663-7.176a455.997 455.997 0 0117.454-19.749c3.897 2.092 8.178 3.26 12.557 3.377.008.114.02.229.03.343a99.512 99.512 0 00-2.213 2.735c-3.034 3.851-3.666 4.653-13.432 6.664-2.778.573-10.157 2.094-10.265 7.266-.117 5.651 8.722 8.024 9.729 8.276 3.51.878 6.89 1.312 10.115 1.312 7.842-.001 14.743-2.578 20.258-7.565-.17 20.146.67 39.997 3.089 46.046 1.98 4.951 6.82 17.052 22.108 17.051 2.243 0 4.712-.261 7.428-.843 15.955-3.421 22.883-10.473 25.563-26.019 1.434-8.308 3.896-28.148 5.053-38.79 2.443.762 5.589 1.111 8.989 1.11 7.091 0 15.274-1.506 20.406-3.888 5.764-2.677 16.167-9.247 14.28-14.955zm-37.994-71.913c-.053 3.142-.486 5.994-.944 8.971-.493 3.202-1.003 6.513-1.132 10.531-.126 3.911.362 7.978.835 11.909.954 7.943 1.933 16.119-1.858 24.188a31.487 31.487 0 01-1.68-3.453c-.471-1.143-1.494-2.978-2.911-5.518-5.512-9.885-18.421-33.035-11.813-42.482 1.968-2.812 6.963-5.702 19.503-4.146zm-15.199-53.226c18.377.406 32.914 7.281 43.207 20.434 7.895 10.088-.798 55.991-25.963 95.592-.249-.315-.502-.634-.764-.961l-.318-.398c6.503-10.74 5.231-21.366 4.099-30.787-.465-3.866-.904-7.518-.792-10.947.115-3.637.596-6.754 1.061-9.77.572-3.715 1.153-7.56.992-12.092.12-.475.168-1.037.106-1.703-.41-4.347-5.371-17.353-15.485-29.126-5.532-6.439-13.6-13.645-24.615-18.505 4.738-.982 11.218-1.898 18.472-1.737zM75.18 166.108c-5.083 6.111-8.593 4.94-9.747 4.555-7.52-2.508-16.247-18.403-23.94-43.609-6.657-21.81-10.548-43.741-10.856-49.891-.972-19.45 3.743-33.005 14.014-40.289 16.715-11.854 44.197-4.759 55.24-1.16-.159.157-.324.303-.481.462-18.12 18.301-17.691 49.568-17.647 51.48-.001.737.06 1.78.145 3.217.312 5.258.892 15.046-.657 26.131-1.441 10.3 1.734 20.382 8.71 27.659a31.157 31.157 0 002.254 2.127 465.086 465.086 0 00-17.035 19.318zm19.364-25.837c-5.622-5.866-8.175-14.025-7.006-22.388 1.637-11.71 1.032-21.907.708-27.386-.046-.766-.086-1.438-.11-1.969 2.648-2.346 14.915-8.92 23.664-6.915 3.992.914 6.424 3.633 7.436 8.309 5.234 24.209.693 34.299-2.956 42.407-.752 1.671-1.463 3.25-2.07 4.883l-.47 1.263c-1.191 3.193-2.299 6.161-2.985 8.98-5.976-.018-11.79-2.571-16.211-7.184zm.917 32.649c-1.745-.436-3.314-1.194-4.235-1.822.769-.362 2.138-.854 4.512-1.343 11.489-2.365 13.263-4.034 17.138-8.954.888-1.128 1.895-2.407 3.29-3.964l.001-.002c2.078-2.326 3.028-1.931 4.751-1.217 1.396.578 2.756 2.328 3.308 4.254.26.91.554 2.637-.405 3.98-8.095 11.333-19.889 11.187-28.36 9.068zm60.127 55.952c-14.055 3.012-19.031-4.16-22.311-12.358-2.116-5.293-3.156-29.161-2.418-55.518a3.203 3.203 0 00-.137-1.008 13.358 13.358 0 00-.393-1.862c-1.098-3.835-3.772-7.043-6.981-8.373-1.275-.528-3.615-1.497-6.427-.778.6-2.471 1.64-5.26 2.767-8.282l.473-1.271c.533-1.432 1.201-2.917 1.908-4.487 3.818-8.484 9.048-20.104 3.372-46.355-2.126-9.832-9.226-14.633-19.989-13.519-6.453.668-12.356 3.272-15.3 4.765-.633.32-1.212.63-1.753.932.822-9.907 3.927-28.42 15.541-40.134 7.312-7.375 17.051-11.017 28.917-10.82 23.379.382 38.372 12.38 46.833 22.379 7.29 8.615 11.239 17.294 12.814 21.974-11.849-1.204-19.907 1.135-23.993 6.975-8.887 12.704 4.862 37.363 11.471 49.213 1.211 2.173 2.257 4.049 2.586 4.847 2.152 5.215 4.938 8.697 6.972 11.239.624.779 1.229 1.534 1.689 2.193-3.589 1.035-10.035 3.425-9.448 15.374-.474 5.996-3.843 34.067-5.555 43.985-2.259 13.102-7.08 17.983-20.638 20.889zm58.668-67.138c-3.669 1.704-9.811 2.982-15.645 3.256-6.443.302-9.723-.722-10.495-1.351-.362-7.446 2.41-8.225 5.343-9.048.461-.13.91-.256 1.344-.408.27.22.566.438.889.651 5.179 3.419 14.417 3.787 27.458 1.096l.143-.029c-1.759 1.644-4.769 3.852-9.037 5.833z" fill="#fff"/></svg>
