<svg width="256" height="256" fill="none" xmlns="http://www.w3.org/2000/svg"><path fill="#121212" d="M0 0h256v256H0z"/><path d="M134 7l110 62.168v124.378l-110 62.168-110-62.168V69.168L134 7z" fill="#fff"/><path d="M224.366 189.233l-86.713 49.062V200.14l54.045-29.736 32.668 18.829zm5.936-5.35V81.361l-31.713 18.29v65.942l31.713 18.29zm-187 5.35l86.713 49.021v-38.156L75.97 170.404l-32.668 18.829zm-5.936-5.35V81.361l31.713 18.29v65.942l-31.713 18.29zM41.06 74.726l88.955-50.266v36.911L73.023 92.683l-.457.25L41.06 74.725zm185.506 0L137.653 24.46v36.911l56.951 31.354.456.249 31.506-18.248z" fill="#8ED6FB"/><path d="M130.015 191.431l-53.298-29.322v-58.021l53.298 30.732v56.611zm7.638 0l53.298-29.28v-58.063l-53.298 30.732v56.611zM80.287 97.37l53.547-29.404L187.34 97.37l-53.506 30.856L80.287 97.37z" fill="#1C78C0"/></svg>
