<svg width="256" height="256" fill="none" xmlns="http://www.w3.org/2000/svg"><path fill="#fff" d="M0 0h256v256H0z"/><path d="M233.459 109.584c-4.954-3.438-16.307-4.727-25.183-3.008-1.032-8.594-5.78-16.113-14.036-22.773l-4.748-3.437-3.302 4.941c-4.129 6.445-6.193 15.468-5.574 24.062.207 3.007 1.239 8.378 4.335 13.105-2.89 1.718-8.876 3.867-16.72 3.867H18.992l-.413 1.718c-1.444 8.594-1.444 35.448 15.482 56.072 12.798 15.683 31.788 23.632 56.764 23.632 54.081 0 94.126-25.995 112.91-73.044 7.431.215 23.325 0 31.375-16.112.207-.43.619-1.289 2.064-4.512l.826-1.719-4.541-2.792zM138.301 49h-22.706v21.484h22.706V49zm0 25.78h-22.706v21.484h22.706V74.78zm-26.834 0H88.761v21.484h22.706V74.78zm-26.834 0H61.927v21.484h22.706V74.78zm-26.834 25.78H35.093v21.484h22.706V100.56zm26.834 0H61.927v21.484h22.706V100.56zm26.834 0H88.761v21.484h22.706V100.56zm26.834 0h-22.706v21.484h22.706V100.56zm26.834 0h-22.706v21.484h22.706V100.56z" fill="#2396ED"/></svg>
