<svg width="256" height="256" fill="none" xmlns="http://www.w3.org/2000/svg"><path d="M10.67 10.943h234.71v234.114H10.67V10.943z" fill="url(#ps)"/><path d="M10.67 10.943h234.71v234.114H10.67V10.943zM0 256h256V0H0v256zm172.633-150.938c-8.413 0-11.286 4.367-11.286 7.997 0 3.946 1.898 6.681 13.236 12.679 16.724 8.312 21.957 16.309 21.957 27.988 0 17.519-13.031 26.937-30.627 26.937-9.286 0-17.289-1.947-21.855-4.683-.77-.315-.872-.894-.872-1.736v-16.151c0-1.105.513-1.421 1.282-.894 6.721 4.471 14.416 6.471 21.445 6.471 8.413 0 11.953-3.631 11.953-8.523 0-3.946-2.462-7.418-13.236-13.153-15.134-7.418-21.444-14.941-21.444-27.567 0-14.1 10.773-25.832 29.447-25.832 9.183 0 15.596 1.42 19.085 3.052.872.526 1.077 1.42 1.077 2.21v14.993c0 .894-.513 1.42-1.59 1.105-4.72-3.052-11.646-4.893-18.572-4.893zm-91.729 12.995c2.463.21 4.36.21 8.619.21 12.467 0 24.215-4.472 24.215-21.886 0-13.889-8.414-20.886-22.625-20.886-4.258 0-8.31.21-10.26.316l.051 42.246zM61.871 59.975c0-.789 1.488-1.315 2.36-1.315 6.823-.316 16.981-.526 27.498-.526 29.55 0 41.093 16.625 41.093 37.827 0 27.778-19.648 39.72-43.76 39.72-4.054 0-5.439-.21-8.312-.21v41.982c0 .895-.308 1.316-1.282 1.316H63.153c-.872 0-1.282-.316-1.282-1.316V59.975z" fill="#31C5F0"/><defs><radialGradient id="ps" cx="0" cy="0" r="1" gradientUnits="userSpaceOnUse" gradientTransform="matrix(178.353 0 0 177.078 88.029 63.468)"><stop stop-color="#34364E" stop-opacity=".98"/><stop offset="1" stop-color="#0C0824"/></radialGradient></defs></svg>
