<svg width="256" height="256" fill="none" xmlns="http://www.w3.org/2000/svg"><path fill="#fff" d="M0 0h256v256H0z"/><path d="M127.207 19c-55.85 0-52.362 24.22-52.362 24.22l.062 25.091h53.296v7.534H53.738S18 71.792 18 128.145c0 56.352 31.193 54.354 31.193 54.354H67.81v-26.15s-1.003-31.193 30.695-31.193h52.86s29.699.48 29.699-28.703V48.202S185.572 19 127.207 19zM97.819 35.873a9.58 9.58 0 019.589 9.588 9.58 9.58 0 01-9.589 9.589 9.58 9.58 0 01-9.588-9.589 9.58 9.58 0 019.588-9.588z" fill="url(#python)"/><path d="M128.793 237.854c55.85 0 52.362-24.219 52.362-24.219l-.062-25.092h-53.296v-7.534h74.465S238 185.063 238 128.71s-31.193-54.355-31.193-54.355h-18.616v26.15s1.003 31.193-30.695 31.193h-52.86s-29.7-.48-29.7 28.703v48.253s-4.508 29.2 53.857 29.2zm29.388-16.873a9.579 9.579 0 01-9.589-9.588 9.58 9.58 0 019.589-9.588 9.58 9.58 0 019.588 9.588 9.579 9.579 0 01-9.588 9.588z" fill="url(#paint1_linear)"/><defs><linearGradient id="python" x1="39.142" y1="38.685" x2="148.166" y2="146.622" gradientUnits="userSpaceOnUse"><stop stop-color="#387EB8"/><stop offset="1" stop-color="#366994"/></linearGradient><linearGradient id="paint1_linear" x1="106.061" y1="107.995" x2="223.142" y2="218.675" gradientUnits="userSpaceOnUse"><stop stop-color="#FFE052"/><stop offset="1" stop-color="#FFC331"/></linearGradient></defs></svg>
